Coordinates
version=1
nRows=16
nColumns=63
inDegrees=yes

Units are S.I. units (second, meters, Newtons, ...)
If the header above contains a line with 'inDegrees', this indicates whether rotational values are in degrees (yes) or radians (no).

endheader
time	pelvis_tilt	pelvis_list	pelvis_rotation	pelvis_tx	pelvis_ty	pelvis_tz	hip_flexion_r	hip_adduction_r	hip_rotation_r	knee_angle_r	knee_angle_r_beta	ankle_angle_r	subtalar_angle_r	mtp_angle_r	hip_flexion_l	hip_adduction_l	hip_rotation_l	knee_angle_l	knee_angle_l_beta	ankle_angle_l	subtalar_angle_l	mtp_angle_l	L5_S1_Flex_Ext	L5_S1_Lat_Bending	L5_S1_axial_rotation	L4_L5_Flex_Ext	L4_L5_Lat_Bending	L4_L5_axial_rotation	L3_L4_Flex_Ext	L3_L4_Lat_Bending	L3_L4_axial_rotation	L2_L3_Flex_Ext	L2_L3_Lat_Bending	L2_L3_axial_rotation	L1_L2_Flex_Ext	L1_L2_Lat_Bending	L1_L2_axial_rotation	L1_T12_Flex_Ext	L1_T12_Lat_Bending	L1_T12_axial_rotation	Abs_r3	Abs_r2	Abs_r1	Abs_t1	Abs_t2	neck_flexion	neck_bending	neck_rotation	arm_flex_r	arm_add_r	arm_rot_r	elbow_flex_r	pro_sup_r	wrist_flex_r	wrist_dev_r	arm_flex_l	arm_add_l	arm_rot_l	elbow_flex_l	pro_sup_l	wrist_flex_l	wrist_dev_l
16.063830	-5.367033	-5.451128	78.725661	0.201464	1.110721	0.470911	9.525003	-3.983130	4.077598	9.627065	0.168024	33.613819	15.317090	0.000000	6.521267	4.186491	7.012937	3.851552	0.067222	28.489227	-13.174973	0.000000	-0.047591	-1.171920	-1.577621	-0.088381	-1.558654	-1.676223	-0.078187	-2.849407	-1.676223	-0.054391	-2.849407	-1.380419	-0.044193	-2.389780	-1.281817	-0.027193	-1.815305	-1.183216	-0.339936	-13.256998	-8.774257	0.000000	0.000000	-3.911521	3.258008	11.732935	24.324240	-15.299796	19.624164	83.237752	89.016658	-8.370378	0.130059	52.287651	-9.929639	72.963533	51.701447	46.149122	-8.288022	-1.649612
16.085106	-5.289389	-5.407461	78.620013	0.201790	1.111017	0.470499	9.420238	-3.890840	4.415527	9.470366	0.165289	33.541698	15.163425	0.000000	6.398012	4.093418	6.591167	3.774457	0.065877	28.632013	-13.075746	0.000000	-0.025476	-1.181255	-1.612350	-0.047311	-1.571069	-1.713122	-0.041854	-2.872102	-1.713122	-0.029116	-2.872102	-1.410806	-0.023657	-2.408814	-1.310034	-0.014557	-1.829763	-1.209262	-0.181971	-13.362588	-8.967407	0.000000	0.000000	-4.161069	3.199943	11.866813	24.248065	-15.483681	19.318882	83.427593	88.552841	-8.381637	1.014995	53.998361	-9.893899	69.712259	50.529420	46.698939	-7.195270	-0.855964
16.106383	-5.196224	-5.326755	78.484185	0.202094	1.111481	0.470032	9.239862	-3.799788	4.752771	9.267595	0.161750	33.432234	15.086684	0.000000	6.241289	3.999800	6.189885	3.703542	0.064639	28.740740	-13.088074	0.000000	-0.008184	-1.183203	-1.617754	-0.015198	-1.573660	-1.718863	-0.013445	-2.876840	-1.718863	-0.009353	-2.876840	-1.415535	-0.007600	-2.412788	-1.314425	-0.004676	-1.832782	-1.213315	-0.058457	-13.384629	-8.997461	0.000000	0.000000	-4.495521	3.071810	12.088334	24.161942	-15.763163	19.054931	83.525504	88.006109	-8.303988	1.696681	55.849296	-10.453115	66.708843	49.979026	48.009599	-6.089492	0.179792
16.127660	-5.105275	-5.201878	78.283005	0.202486	1.112085	0.469544	8.978489	-3.725302	5.119985	9.014646	0.157335	33.274769	15.081117	0.000000	6.040115	3.916555	5.802151	3.625888	0.063284	28.800427	-13.195229	0.000000	0.002291	-1.181926	-1.570356	0.004255	-1.571961	-1.668503	0.003764	-2.873734	-1.668503	0.002619	-2.873734	-1.374061	0.002128	-2.410183	-1.275914	0.001309	-1.830803	-1.177767	0.016366	-13.370180	-8.733847	0.000000	0.000000	-4.863123	2.927814	12.200980	23.941250	-16.119961	18.631058	83.629363	87.364355	-8.095307	2.210422	57.901026	-11.508832	64.171078	49.991601	50.024152	-4.680633	1.428592
16.148936	-5.017733	-5.041221	78.060521	0.202900	1.112821	0.469071	8.647362	-3.672166	5.449945	8.728373	0.152339	33.076358	15.156693	0.000000	5.808046	3.844518	5.470471	3.536407	0.061722	28.792890	-13.364707	0.000000	0.006074	-1.176611	-1.484867	0.011280	-1.564892	-1.577672	0.009979	-2.860811	-1.577672	0.006942	-2.860811	-1.299259	0.005640	-2.399344	-1.206455	0.003471	-1.822570	-1.113651	0.043386	-13.310055	-8.258388	0.000000	0.000000	-5.265212	2.772847	12.283366	23.635852	-16.524455	18.086331	83.668754	86.796003	-7.754823	2.327717	60.062153	-13.048025	62.190025	50.519990	52.858881	-3.199548	2.763779
16.170213	-4.937031	-4.857156	77.840547	0.203317	1.113672	0.468652	8.263827	-3.641054	5.717757	8.420912	0.146973	32.841405	15.308332	0.000000	5.566390	3.785287	5.225314	3.446976	0.060161	28.721612	-13.588680	0.000000	0.003331	-1.167995	-1.366399	0.006186	-1.553434	-1.451799	0.005472	-2.839864	-1.451799	0.003807	-2.839864	-1.195599	0.003093	-2.381776	-1.110199	0.001903	-1.809225	-1.024799	0.023792	-13.212596	-7.599500	0.000000	0.000000	-5.677744	2.623764	12.294795	23.236684	-16.958172	17.412834	83.659910	86.321466	-7.337392	2.049942	62.306012	-14.990751	60.853254	51.447146	56.592825	-1.728411	4.132861
16.191489	-4.865530	-4.664291	77.645756	0.203708	1.114611	0.468316	7.848314	-3.630077	5.913444	8.106747	0.141489	32.577390	15.526806	0.000000	5.340041	3.739587	5.067726	3.381430	0.059017	28.599753	-13.842351	0.000000	-0.005336	-1.156456	-1.225733	-0.009909	-1.538087	-1.302341	-0.008766	-2.811808	-1.302341	-0.006098	-2.811808	-1.072516	-0.004955	-2.358246	-0.995908	-0.003049	-1.791351	-0.919300	-0.038111	-13.082065	-6.817157	0.000000	0.000000	-6.073203	2.503751	12.249744	22.751886	-17.405665	16.652148	83.636383	85.946194	-6.919313	1.501401	64.594022	-17.269469	60.150459	52.632810	61.578884	-0.433168	5.524304
16.212766	-4.790311	-4.478225	77.500510	0.204007	1.115599	0.468057	7.412998	-3.622885	6.010137	7.790073	0.135962	32.280776	15.799800	0.000000	5.143505	3.696658	5.008670	3.357844	0.058605	28.435347	-14.135486	0.000000	-0.019337	-1.140025	-1.074981	-0.035911	-1.516233	-1.142167	-0.031769	-2.771857	-1.142167	-0.022100	-2.771857	-0.940609	-0.017956	-2.324739	-0.873422	-0.011049	-1.765899	-0.806236	-0.138123	-12.896191	-5.978723	0.000000	0.000000	-6.418813	2.408402	12.160656	22.184932	-17.862348	15.833843	83.656108	85.671778	-6.531116	0.867040	66.839289	-19.795646	60.002700	53.942494	67.427323	0.644987	6.894683
16.234043	-4.720785	-4.297345	77.390525	0.204251	1.116606	0.467848	6.975329	-3.624655	6.030284	7.504237	0.130974	31.985295	16.126277	0.000000	4.969652	3.664938	5.024601	3.386772	0.059110	28.211859	-14.480330	0.000000	-0.039078	-1.120861	-0.916811	-0.072572	-1.490745	-0.974112	-0.064202	-2.725261	-0.974112	-0.044662	-2.725261	-0.802210	-0.036288	-2.285659	-0.744909	-0.022329	-1.736213	-0.687608	-0.279132	-12.679402	-5.099028	0.000000	0.000000	-6.692749	2.382891	12.022875	21.522829	-18.315282	14.964835	83.780546	85.487583	-6.205685	0.309346	68.930475	-22.501972	60.251289	55.298028	73.942653	1.436459	8.291615
16.255319	-4.638432	-4.145552	77.314963	0.204427	1.117584	0.467653	6.553804	-3.607525	5.997631	7.238600	0.126337	31.702026	16.481547	0.000000	4.834113	3.621001	5.064319	3.478549	0.060712	27.940235	-14.847504	0.000000	-0.061482	-1.096207	-0.758930	-0.114179	-1.457955	-0.806363	-0.101009	-2.665317	-0.806363	-0.070268	-2.665317	-0.664064	-0.057093	-2.235385	-0.616631	-0.035131	-1.698024	-0.569198	-0.439162	-12.400512	-4.220941	0.000000	0.000000	-6.878188	2.382837	11.865807	20.775706	-18.751230	14.055643	84.042904	85.372397	-5.891850	-0.012533	70.681608	-25.327548	60.714782	56.679345	80.114231	2.005862	9.556231
16.276596	-4.553851	-4.020533	77.297652	0.204537	1.118513	0.467459	6.156930	-3.581132	5.898293	7.007450	0.122303	31.474668	16.859448	0.000000	4.737754	3.575510	5.097397	3.645224	0.063621	27.631587	-15.201824	0.000000	-0.086778	-1.069045	-0.613371	-0.161156	-1.421830	-0.651706	-0.142568	-2.599277	-0.651706	-0.099179	-2.599277	-0.536699	-0.080583	-2.179997	-0.498364	-0.049585	-1.655951	-0.460028	-0.619850	-12.093255	-3.411383	0.000000	0.000000	-6.960692	2.435447	11.703971	19.985100	-19.152351	13.176991	84.401552	85.301506	-5.646220	-0.143489	71.923013	-28.228838	61.160158	58.148641	85.479617	2.484560	10.760937
16.297872	-4.463428	-3.933561	77.309232	0.204611	1.119359	0.467278	5.813319	-3.533190	5.778008	6.825118	0.119121	31.307212	17.222093	0.000000	4.687953	3.518298	5.073791	3.881339	0.067742	27.312165	-15.519347	0.000000	-0.112690	-1.039563	-0.479644	-0.209277	-1.382618	-0.509622	-0.185138	-2.527592	-0.509622	-0.128793	-2.527592	-0.419689	-0.104644	-2.119876	-0.389711	-0.064391	-1.610282	-0.359733	-0.804933	-11.759739	-2.667639	0.000000	0.000000	-6.920821	2.505053	11.522072	19.181722	-19.509650	12.356391	84.813434	85.305155	-5.428895	-0.133325	72.517214	-31.140594	61.447511	59.738461	89.571798	2.828475	11.840951
16.319149	-4.379680	-3.888089	77.368727	0.204620	1.120090	0.467145	5.537292	-3.476712	5.626901	6.697303	0.116890	31.206139	17.541183	0.000000	4.698051	3.459189	4.980537	4.185099	0.073044	27.020134	-15.714669	0.000000	-0.137922	-1.010098	-0.371556	-0.256134	-1.343430	-0.394778	-0.226592	-2.455952	-0.394778	-0.157631	-2.455952	-0.325112	-0.128074	-2.059791	-0.301889	-0.078808	-1.564641	-0.278667	-0.985161	-11.426428	-2.066483	0.000000	0.000000	-6.754135	2.580397	11.359495	18.438904	-19.791832	11.672375	85.207069	85.390079	-5.299923	-0.058080	72.272409	-33.995032	61.332881	61.513933	92.080309	3.115664	12.780535
16.340426	-4.308715	-3.886247	77.463135	0.204576	1.120690	0.467093	5.342339	-3.416759	5.449080	6.630497	0.115724	31.173731	17.813959	0.000000	4.771914	3.399736	4.821347	4.536379	0.079175	26.773971	-15.767063	0.000000	-0.160851	-0.981944	-0.293670	-0.298717	-1.305986	-0.312024	-0.264263	-2.387499	-0.312024	-0.183837	-2.387499	-0.256961	-0.149367	-2.002381	-0.238607	-0.091911	-1.521032	-0.220252	-1.148946	-11.107951	-1.633303	0.000000	0.000000	-6.472923	2.640516	11.243264	17.812993	-19.964462	11.149859	85.529665	85.565338	-5.258055	0.027916	70.991271	-36.701325	60.557726	63.539873	93.046478	3.337044	13.581843
16.361702	-4.256484	-3.944244	77.602874	0.204442	1.121134	0.467147	5.255744	-3.359774	5.222169	6.638338	0.115861	31.199698	18.046110	0.000000	4.934272	3.343637	4.641594	4.927928	0.086009	26.586742	-15.696789	0.000000	-0.178448	-0.956064	-0.247628	-0.331396	-1.271565	-0.263105	-0.293173	-2.324573	-0.263105	-0.203949	-2.324573	-0.216675	-0.165707	-1.949605	-0.201198	-0.101965	-1.480943	-0.185721	-1.274638	-10.815183	-1.377234	0.000000	0.000000	-6.102633	2.671414	11.149391	17.328528	-20.031374	10.789121	85.772683	85.828748	-5.317601	0.127692	68.587607	-39.161360	59.097387	65.876958	92.358972	3.390828	14.073099
16.382979	-4.236312	-4.041364	77.776788	0.204287	1.121451	0.467312	5.253109	-3.318036	4.978321	6.704539	0.117016	31.274820	18.206936	0.000000	5.162267	3.301461	4.336146	5.343658	0.093264	26.497145	-15.365208	0.000000	-0.191490	-0.935086	-0.238648	-0.355616	-1.243664	-0.253563	-0.314599	-2.273568	-0.253563	-0.218854	-2.273568	-0.208817	-0.177818	-1.906827	-0.193901	-0.109417	-1.448448	-0.178986	-1.367795	-10.577880	-1.327288	0.000000	0.000000	-5.673910	2.663384	11.165539	17.034711	-19.947560	10.638389	85.880490	86.178741	-5.520683	0.198879	65.006105	-41.360787	56.691259	68.549838	90.872906	3.450361	14.614273
